<?xml version="1.0" encoding="UTF-8" standalone="no"?>
<!-- Creator: CorelDRAW X8 -->

<svg
   xmlns:dc="http://purl.org/dc/elements/1.1/"
   xmlns:cc="http://creativecommons.org/ns#"
   xmlns:rdf="http://www.w3.org/1999/02/22-rdf-syntax-ns#"
   xmlns:svg="http://www.w3.org/2000/svg"
   xmlns="http://www.w3.org/2000/svg"
   xmlns:sodipodi="http://sodipodi.sourceforge.net/DTD/sodipodi-0.dtd"
   xmlns:inkscape="http://www.inkscape.org/namespaces/inkscape"
   xml:space="preserve"
   width="493.22836"
   height="128.416"
   version="1.1"
   style="clip-rule:evenodd;fill-rule:evenodd;image-rendering:optimizeQuality;shape-rendering:geometricPrecision;text-rendering:geometricPrecision"
   viewBox="0 0 13050.001 3397.6733"
   id="svg2"
   inkscape:version="0.92.3 (unknown)"
   sodipodi:docname="Logo TecnoJr (2017)_ofical.svg"><metadata
     id="metadata122"><rdf:RDF><cc:Work
         rdf:about=""><dc:format>image/svg+xml</dc:format><dc:type
           rdf:resource="http://purl.org/dc/dcmitype/StillImage" /><dc:title></dc:title></cc:Work></rdf:RDF></metadata><sodipodi:namedview
     pagecolor="#ffffff"
     bordercolor="#666666"
     borderopacity="1"
     objecttolerance="10"
     gridtolerance="10"
     guidetolerance="10"
     inkscape:pageopacity="0"
     inkscape:pageshadow="2"
     inkscape:window-width="1440"
     inkscape:window-height="876"
     id="namedview120"
     showgrid="false"
     fit-margin-top="0"
     fit-margin-left="0"
     fit-margin-right="0"
     fit-margin-bottom="0"
     inkscape:zoom="1"
     inkscape:cx="252.46734"
     inkscape:cy="169.64053"
     inkscape:window-x="0"
     inkscape:window-y="24"
     inkscape:window-maximized="1"
     inkscape:current-layer="g4673"
     units="px" /><defs
     id="defs4"><style
       type="text/css"
       id="style90"><![CDATA[
    @font-face { font-family:"Galathea";font-variant:normal;font-style:normal;font-weight:normal;src:url("#FontID1") format(svg)}
    @font-face { font-family:"VDub";font-variant:normal;font-style:normal;font-weight:normal;src:url("#FontID0") format(svg)}
    .str0 {stroke:#265AA7;stroke-width:70.56}
    .str1 {stroke:#265AA7;stroke-width:7.62}
    .fil3 {fill:#FEFEFE}
    .fil0 {fill:#265AA7}
    .fil1 {fill:white}
    .fil2 {fill:#FEFEFE;fill-rule:nonzero}
    .fnt0 {font-weight:normal;font-size:502.22px;font-family:'VDub'}
    .fnt1 {font-weight:normal;font-size:1292.59px;font-family:'Galathea'}
    .fnt2 {font-weight:normal;font-size:1790.38px;font-family:'VDub'}
    .fnt3 {font-weight:normal;font-size:1819.27px;font-family:'VDub'}
   ]]></style></defs><g
     inkscape:groupmode="layer"
     id="layer2"
     inkscape:label="Implementando"
     style="display:inline"
     transform="translate(1.066,-8589.3264)"><g
       id="g4673"><g
   id="g3384"
   transform="matrix(63.9,0,0,63.9,-28610,-22179.426)"
   style="clip-rule:evenodd;fill-rule:evenodd;image-rendering:optimizeQuality;shape-rendering:geometricPrecision;text-rendering:geometricPrecision"><path
     inkscape:connector-curvature="0"
     style="fill:#ffffff;stroke:none"
     d="M 595.9,533.1 H 456.5 c -4,0 -7.2,-2.9 -7.2,-6.5 v -36.9 c 0,-3.6 3.2,-6.6 7.2,-6.6 h 139.4 c 3.9,0 7.2,3 7.2,6.6 v 36.9 c 0,3.6 -3.3,6.5 -7.2,6.5 z"
     id="path3127" /><path
     inkscape:connector-curvature="0"
     style="fill:#ffffff;stroke:#004f99;stroke-width:1.77170002"
     d="m 455.3,533.8 c -1.7,-0.3 -3.2,-1 -4.4,-2.1 -1.4,-1.3 -2.3,-3.1 -2.3,-5.1 v 0 0 -36.9 0 0 c 0,-2 0.9,-3.9 2.3,-5.2 1.4,-1.3 3.4,-2.1 5.6,-2.1 v 0 0 h 139.4 v 0 0 c 2.2,0 4.1,0.8 5.6,2.1 1.4,1.3 2.3,3.2 2.3,5.2 v 0 0 36.9 0 0 c 0,2 -0.9,3.8 -2.3,5.1 -1.2,1.1 -2.7,1.8 -4.4,2.1 z m 1.2,-1.4 h 139.4 v 0 0 c 1.8,0 3.4,-0.7 4.6,-1.7 1.1,-1.1 1.8,-2.5 1.8,-4.1 v 0 0 -36.9 0 0 c 0,-1.6 -0.7,-3.1 -1.8,-4.1 -1.2,-1.1 -2.8,-1.8 -4.6,-1.8 v 0 0 H 456.5 v 0 0 c -1.8,0 -3.4,0.7 -4.6,1.8 -1.2,1 -1.9,2.5 -1.9,4.1 v 0 0 36.9 0 0 c 0,1.6 0.7,3 1.9,4.1 1.2,1 2.8,1.7 4.6,1.7 z"
     id="path3129" /><path
     inkscape:connector-curvature="0"
     style="fill:#004f99;stroke:#004f99;stroke-width:0;stroke-linejoin:round"
     d="m 567.7,520.5 c -3.5,0 -5.8,-0.1 -6.9,-0.4 -1.7,-0.3 -2.8,-1.2 -3.4,-2.5 -0.7,-1.3 -1,-3.6 -1,-6.9 0,-3.1 0.3,-5.4 0.8,-6.7 0.6,-1.4 1.6,-2.3 3.2,-2.7 1.3,-0.4 3.5,-0.6 6.8,-0.6 4.1,0 6.8,0.1 8.1,0.3 1.8,0.3 3.1,0.8 3.7,1.6 0.6,0.7 1.1,2 1.3,3.9 0.1,1.1 0.2,2.5 0.2,4.2 0,2.9 -0.2,5.1 -0.7,6.3 -0.5,1.4 -1.5,2.4 -2.9,2.8 -1.3,0.5 -3.4,0.7 -6.4,0.7 z"
     id="path3135" /><path
     inkscape:connector-curvature="0"
     style="fill:#004f99;stroke:#004f99;stroke-width:0;stroke-linejoin:round"
     d="m 544.3,515.4 -11.8,-11.8 h -1.7 v 15.7 h -2.9 v -17.1 c 0,-1 0.5,-1.5 1.5,-1.5 h 3.7 c 0.4,0 0.7,0.2 1,0.5 l 12.3,12.2 z"
     id="path3139" /><path
     inkscape:connector-curvature="0"
     style="fill:#004f99;stroke:#004f99;stroke-width:0;stroke-linejoin:round"
     d="m 549.2,519.3 v -18.6 h 2.9 v 18.6 z"
     id="path3143" /><path
     inkscape:connector-curvature="0"
     style="fill:#004f99;stroke:#004f99;stroke-width:0;stroke-linejoin:round"
     d="m 515.1,520.5 h -4.9 c -4,0 -6.5,-0.6 -7.6,-1.9 -1.2,-1.2 -1.7,-3.7 -1.7,-7.7 v -2.1 c 0,-2.2 0.3,-3.8 0.9,-5 0.7,-1.5 2,-2.4 3.9,-2.7 1.4,-0.3 4.4,-0.4 9,-0.4 2.1,0 3.8,0.2 4.9,0.5 1.9,0.6 3,1.7 3.4,3.2 0.2,0.6 0.3,1.8 0.3,3.6 l -2.9,0.1 c 0,-0.8 0,-1.8 -0.1,-3 -0.4,-1 -2.3,-1.5 -5.6,-1.5 -3.7,0 -5.2,-0.1 -4.3,-0.1 -1.7,0.1 -3.1,0.2 -4.3,0.4 -1,0.2 -1.6,0.7 -1.9,1.5 -0.3,0.9 -0.4,2.7 -0.4,5.4 0,2.3 0,3.8 0.2,4.5 0.2,0.9 0.8,1.6 1.6,1.9 0.8,0.3 2.3,0.4 4.4,0.4 0,0 1,0 2.9,0.1 1.3,0 2.4,0 3.3,0 1.2,-0.1 2.1,-0.2 2.8,-0.4 0.7,-0.2 1.2,-0.6 1.4,-1.2 0.1,-0.4 0.2,-1.5 0.2,-3.2 l 2.9,0.1 c 0,0.4 0,1.1 -0.1,2 -0.1,2.4 -1,3.9 -2.6,4.7 -1,0.5 -2.9,0.8 -5.7,0.8 z"
     id="path3147" /><path
     inkscape:connector-curvature="0"
     style="fill:#004f99;stroke:#004f99;stroke-width:0;stroke-linejoin:round"
     d="m 480.9,519.3 c -1,0 -1.5,-0.5 -1.5,-1.4 v -15.7 c 0,-1 0.5,-1.5 1.5,-1.5 h 16.9 v 2.9 h -15.5 v 12.8 h 15.5 v 2.9 z"
     id="path3151" /><path
     inkscape:connector-curvature="0"
     style="fill:#004f99;stroke:#004f99;stroke-width:0;stroke-linejoin:round"
     d="m 494.2,510.7 v -2.8 h 2.9 v 2.8 z"
     id="path3155" /><path
     inkscape:connector-curvature="0"
     style="fill:#004f99;stroke:#004f99;stroke-width:0;stroke-linejoin:round"
     d="m 464.7,519.3 v -13.9 h 2.9 v 13.9 z"
     id="path3159" /><path
     inkscape:connector-curvature="0"
     style="fill:#004f99;stroke:#004f99;stroke-width:0;stroke-linejoin:round"
     d="m 456.4,503.6 v -2.9 h 19.8 v 2.9 z"
     id="path3163" /><path
     inkscape:connector-curvature="0"
     style="fill:#ffffff;stroke:#ffffff;stroke-width:1.25010002;stroke-linejoin:round"
     d="m 566.8,503.6 c -2.1,0 -3.8,0.1 -5.1,0.3 -1,0.2 -1.6,0.6 -1.9,1.4 -0.3,0.8 -0.5,2.5 -0.5,5.1 0,2.4 0.1,4 0.2,4.7 0.2,0.9 0.5,1.5 1,1.8 0.4,0.3 1.1,0.5 2.1,0.5 1.2,0.2 2.8,0.2 4.7,0.2 h 4 c 1.6,0 2.8,-0.1 3.7,-0.2 0.8,-0.2 1.3,-0.4 1.6,-0.7 0.3,-0.3 0.6,-0.8 0.7,-1.6 0.2,-0.9 0.3,-2.4 0.3,-4.4 0,-1.7 -0.1,-3 -0.2,-3.9 -0.1,-1.1 -0.3,-1.8 -0.6,-2.1 -0.3,-0.4 -1,-0.7 -2,-0.9 -1.1,-0.2 -3.8,-0.2 -8,-0.2 z"
     id="path3165" /><path
     inkscape:connector-curvature="0"
     style="fill:#ffffff;stroke:#ffffff;stroke-width:0;stroke-linejoin:round"
     d="m 566.8,503.6 c -2.1,0 -3.8,0.1 -5.1,0.3 -1,0.2 -1.6,0.6 -1.9,1.4 -0.3,0.8 -0.5,2.5 -0.5,5.1 0,2.4 0.1,4 0.2,4.7 0.2,0.9 0.5,1.5 1,1.8 0.4,0.3 1.1,0.5 2.1,0.5 1.2,0.2 2.8,0.2 4.7,0.2 h 4 c 1.6,0 2.8,-0.1 3.7,-0.2 0.8,-0.2 1.3,-0.4 1.6,-0.7 0.3,-0.3 0.6,-0.8 0.7,-1.6 0.2,-0.9 0.3,-2.4 0.3,-4.4 0,-1.7 -0.1,-3 -0.2,-3.9 -0.1,-1.1 -0.3,-1.8 -0.6,-2.1 -0.3,-0.4 -1,-0.7 -2,-0.9 -1.1,-0.2 -3.8,-0.2 -8,-0.2 z"
     id="path3167" /><path
     inkscape:connector-curvature="0"
     style="fill:#004f99;stroke:#004f99;stroke-width:1.77170002"
     d="m 589,482.4 h 36.8 c 13.8,0 25.2,10.9 25.2,24.3 v 20.1 c 0,3.4 -2.4,6.2 -5.6,7 h -56.1 c -0.2,-0.2 -0.3,-0.4 -0.3,-0.6 z"
     id="path3169" /><path
     inkscape:connector-curvature="0"
     style="fill:#ffffff;stroke:none;stroke-width:0;stroke-linejoin:round"
     d="m 639.8,514.1 c 0.4,1.5 2.5,2.3 2.5,4.2 v 3.9 h -2.5 c 0,-0.4 0,-1.1 0,-2 0.1,-0.9 0.1,-1.6 0.1,-2 0,-1.2 -0.2,-2 -0.6,-2.4 -0.1,0 -0.4,-0.2 -1.2,-0.5 -0.4,-0.2 -3.2,-0.6 -3.2,-1.3 0,-0.7 3,-1.2 3.7,-1.5 0.8,-0.3 1.3,-0.7 1.4,-1.2 0.1,-0.4 0.1,-1 0.1,-1.9 0,-1.2 -0.1,-2.1 -0.3,-2.5 -0.2,-0.8 -0.8,-1.2 -1.6,-1.4 -0.7,-0.1 -1.8,-0.2 -3.2,-0.2 h -9.3 v 16.9 h -2.5 v -18.5 c 0,-1 0.4,-1.5 1.2,-1.5 h 10.3 c 2.8,0 4.7,0.3 5.7,1 1.4,1 3.1,3.2 2.2,6.1 -0.7,2.4 -2.6,3.8 -2.8,4.8 z"
     id="path3173" /><path
     inkscape:connector-curvature="0"
     style="fill:#ffffff;stroke:none"
     d="m 617.4,513.5 c 0,3.6 -0.4,5.9 -1.1,7.1 -1.1,1.6 -4.6,2.4 -10.3,2.4 -3.4,0 -5.7,-0.1 -6.9,-0.4 -2.5,-0.7 -3.9,-2.1 -4.4,-4.4 -0.1,-0.8 -0.2,-2.2 -0.3,-4.1 l 2.8,-0.1 c 0.1,2.9 0.5,4.7 1.2,5.3 0.7,0.7 2.5,1 5.5,1 0.3,0 0.7,0 1.3,0 0.5,0 1,0 1.2,0 3,0 4.9,-0.1 5.9,-0.4 1.1,-0.3 1.8,-1.1 2.1,-2.3 0.1,-0.8 0.2,-2.7 0.2,-5.7 v -29.5 h 2.8 z"
     id="path3177" /></g>
</g></g></svg>